<?xml version="1.0" encoding="utf-8"?>
<!-- Generator: Adobe Illustrator 24.1.0, SVG Export Plug-In . SVG Version: 6.00 Build 0)  -->
<svg version="1.1" id="Layer_1" xmlns="http://www.w3.org/2000/svg" xmlns:xlink="http://www.w3.org/1999/xlink" x="0px" y="0px"
	 viewBox="0 0 791.5 328.4" style="enable-background:new 0 0 791.5 328.4;" xml:space="preserve">
<style type="text/css">
	.st0{fill:none;stroke:#ADADAD;stroke-width:5;stroke-miterlimit:10;}
	.st1{fill:none;stroke:#ADADAD;stroke-width:5;stroke-linecap:square;stroke-miterlimit:10;}
	.st2{fill:#FFFFFF;stroke:#ADADAD;stroke-width:5;stroke-linecap:round;stroke-miterlimit:10;}
	.st3{fill:none;stroke:#ADADAD;stroke-width:5;stroke-linecap:round;stroke-miterlimit:10;}
	.st4{fill:#ADADAD;}
</style>
<path class="st0" d="M182.5,235.9c0,49.7-40.3,90-90,90s-90-40.3-90-90s40.3-90,90-90l0,0C142.2,145.9,182.5,186.2,182.5,235.9z"/>
<path class="st0" d="M17,187.1c0,0,19.4-13,45.3-13c16.7,0,34.7,12.6,55.9,12.8c19.4,0.2,42.6-9.7,42.6-9.7"/>
<path class="st1" d="M11.4,201.4c0,0,38.2-4.8,51.8-4.3c14,0.5,23,6.7,37,7.6c18.2,1.2,42.7-2.4,42.7-2.4s-22.8,11.4-30.4,12.9
	c-9.5,1.9-35.3-3.9-45-3.9c-10.1-0.1-28.4,9.7-38.5,9.8c-12.9,0.2-20.4-2.5-20.4-2.5"/>
<path class="st0" d="M178.8,210.3c0,0-34.7,23.5-50.4,25.6c-22.3,2.9-38.9-11.4-51.4-10c-13.9,1.6-21,9.6-29.2,10
	c-6.5,0.3-18.2-3.4-24.7-4.1c-3.5-0.4-20.6,4.1-20.6,4.1"/>
<path class="st1" d="M168.5,278.2c0,0-29.1-0.9-38.4,0.8c-12.4,2.2-12.9,6.4-12.3,10.4s4.7,7.3,14.7,7.1c5.6-0.2,24,0,24,0"/>
<path class="st0" d="M5.2,257.7c0,0,30.1-11.6,39.7-11.2c9.4,0.3,25.9,12.6,35.3,12.9c8.4,0.2,22.8-12,31.2-12.9
	c11-1.3,31.3,5.9,42.3,5.3c7.5-0.4,28.6-9.1,28.6-9.1"/>
<path class="st0" d="M176.8,267.6c0,0-18.2-5.2-33.9-3.5c-12.8,1.4-25.9,8.7-30.9,10.4c-5.7,1.9-16.9-4.7-22.9-4.5
	c-7.4,0.3-19.2,9.9-26.5,11.2c-9.1,1.5-17.2-13.6-26.5-12.9c-7.5,0.5-23,10-23,10"/>
<path class="st0" d="M28.7,299.4c0,0,26.6,10.6,35.6,9.4c7.2-0.9,19.2-13.1,26.5-12.3c7.7,0.8,19.2,14.2,26.9,15.3
	c6.4,0.9,27.9-3.1,27.9-3.1"/>
<path class="st2" d="M299.2,182.8"/>
<path class="st3" d="M440.8,166c-1,39.8-34.1,71.1-73.9,70.1c-27.2-0.7-51.6-16.6-63.2-41.2"/>
<path class="st2" d="M440,153.1"/>
<path class="st3" d="M298.7,180.7c-8.8-38.8,15.4-77.4,54.2-86.2s77.4,15.4,86.2,54.2c0.2,0.8,0.3,1.5,0.5,2.3"/>
<path class="st3" d="M433.9,133.3c39.2-4.8,66.1-4.1,67.6,2.8c2.2,10.5-55.3,31.6-128.6,47s-134.4,19.4-136.6,8.9
	c-1.5-6.9,22.9-18.4,60.5-29.8"/>
<path class="st0" d="M435,141.2c18.8-2.4,30.7-2.8,31.1-0.5c0.9,4.4-42.4,17.3-96.8,28.8s-99.2,17.2-100.2,12.8
	c-0.5-2.3,10.6-6.7,28.8-12.1"/>
<path class="st3" d="M309.8,164.1c0-32.7,26.5-59.2,59.2-59.1c8,0,15.9,1.6,23.3,4.8"/>
<circle class="st3" cx="753" cy="39" r="36"/>
<g>
	<path class="st4" d="M724.1,16.9c-0.7,1.3-0.8,2.8-0.3,4.2c0.5,1.3,1.3,2.3,1.8,3.6c0.3,1,0.2,2-0.4,2.9c-0.6,1.4-1,2.8-1.1,4.3
		c0,1.1,0.8,2.1,1.8,2.4l1.1,0.5l-1.5-1.1c-0.1-0.3,0,0.3,0,0.1s0,0.2,0,0.3c0,0.4,0.2-0.5,0,0.2c0,0.2-0.1,0.4-0.2,0.5
		c-0.3,0.7-0.7,1.4-1.1,2c-1.1,1.7-1.9,3.6-2.2,5.6c-0.2,2.4,1.1,4.4,2.8,6c2,2,4.2,3.9,6.3,5.9c1,1,2.6,0.9,3.6-0.1
		c0.6-0.6,0.8-1.5,0.6-2.3c-0.7-3.4-1.8-6.7-3.3-9.8l-3.9,3c1.1,1.4,2.2,2.8,3.2,4.2c1,1.1,1.6,2.5,1.8,4c0.1,1.5-1.2,2.6-1.3,4.1
		c-0.1,0.8,0.2,1.7,0.7,2.4c0.3,0.4,0.6,0.7,1,1c0.1,0.1,0.7,0.5,0.5,0.3l-0.6-1.1c0,0.5-0.1,1-0.2,1.5l-0.3,2.4l-0.7,4.8
		c-0.3,1.3,0.4,2.7,1.8,3.1c1.3,0.4,2.7-0.4,3.1-1.8l1.1-7.6c0.3-1.2,0.4-2.5,0.1-3.7c-0.4-1.1-1.5-1.6-2-2.1l0.7,1.1
		c0,0.1-0.1,0.2,0,0.1s0.3-0.6,0.4-0.8c0.4-0.7,0.6-1.5,0.8-2.2c0.2-1.6,0-3.3-0.6-4.8c-1.3-3.1-3.7-5.7-5.8-8.4
		c-0.9-0.9-2.3-1-3.3-0.2s-1.2,2.1-0.6,3.2c1.3,2.7,2.2,5.6,2.8,8.6l4.2-2.4c-2.1-2-4.3-3.9-6.4-6c-0.6-0.5-1.1-1.2-1.2-1.9
		c0-0.4-0.1,0.5,0-0.3c0-0.2,0.1-0.4,0.2-0.6c0.1-0.3,0.3-0.7,0.5-1c0.9-1.7,2.1-3.3,2.6-5.2c0.3-1.1,0.3-2.2,0.1-3.2
		c-0.2-0.7-0.5-1.3-1-1.9c-0.7-0.5-1.4-0.9-2.2-1.1l1.8,2.4c0.2-1.1,0.5-2.2,1-3.2c0.6-1.3,0.8-2.7,0.6-4.1
		c-0.2-1.3-0.7-2.5-1.4-3.5c-0.3-0.4-0.5-0.9-0.7-1.3c-0.1-0.3-0.1-0.7-0.2-0.3c0.7-1.2,0.3-2.7-0.9-3.4
		C726.3,15.4,724.8,15.8,724.1,16.9L724.1,16.9z"/>
	<path class="st4" d="M737.7,6.3c-1.2,1.3-1.1,3.3,0.2,4.6c0.2,0.2,0.5,0.4,0.8,0.5c1,0.5,2.1,0.6,3.1,0.2c0.3-0.1,0.2-0.1-0.3-0.1
		l0.7,0.4c0.4,0.2,0.8,0.4,1.2,0.5c1.6,0.3,3.2-0.1,4.6-0.9c0.5-0.3,1-0.6,1.6-0.8c-0.3,0.1,0.4-0.1,0.4-0.1c-0.1,0.1-0.4,0-0.4,0
		c-0.3,0.4,2.6,1.3,2.7,1.3c0.8,0.1,1.6-0.1,2.4-0.4c0.5-0.3,1.2-0.5,1.8-0.4c0.8,0.1,1.6,0.6,2.4,0.8c3.6,0.7,7-1.5,7.9-5.1
		c0.7-3.1-4.2-4.5-4.8-1.3c-0.1,0.7-0.5,1.2-1.1,1.5c-0.8,0.3-1.6-0.2-2.4-0.5c-1.4-0.5-2.9-0.5-4.3,0c-0.5,0.2-0.9,0.4-1.4,0.5
		c0,0,0.7,0.4,0.2-0.1c-0.3-0.3-0.6-0.5-0.9-0.7c-2.2-1.2-4.3-0.1-6.3,0.9c-0.3,0.1-0.6,0.3-0.8,0.4c-0.2,0.2-0.3,0-0.1,0.1
		s-0.2-0.1-0.3-0.1c-0.7-0.4-1.5-0.7-2.3-0.8c-0.3,0-0.7,0-1,0.1c-0.2,0-0.4,0.1-0.6,0.1C740,7,740.4,7.4,741.9,8v1.4V9l-0.6,1.1
		l0.2-0.2C743.4,7.5,739.8,4,737.7,6.3L737.7,6.3z"/>
	<path class="st4" d="M731,16c0.7-0.4,1.6-0.2,2,0.5c0.1,0.1,0.1,0.3,0.2,0.4c0.2,0.8,0.9,1.5,1.8,1.7c1.7,0.5,3.5,0,4.7-1.2h-3.5
		l3.8,4.1c0.8,0.8,2,0.9,3,0.4c3.4-1.6,7-2.7,10.7-3.3l-3.1-3.1c-0.2,1.2-0.7,2.4-1.5,3.3c-0.9,1-2.1,1.7-3.3,2.1
		c-1.8,0.8-1.9,3.3-1.4,5c0.5,1.6,1.6,3,3.1,3.7L748,25c-2.2,0.7-3.7,2.7-3.7,5c-0.2,2.1,0.9,4.2,2.9,5.2l-0.5-3.9
		c-1,1.2-2.4,2-3.5,3.1c-1.3,1.3-2,3-2,4.9c0.1,1.6,0.5,3.2,1.2,4.6c0.3,0.7,0.5,1.4,0.7,2.1c0.1,0.3,0,0.6-0.1,0.9l1.5-1.1
		c-0.7,0-1.3-0.4-1.6-1c-0.3-1.1-1.3-1.8-2.4-1.8c-1.1,0-2.1,0.8-2.4,1.8c-0.5,2.6-0.1,5.2,1.2,7.6v-2.5l-4,5.3
		c-0.6,1-0.4,2.2,0.4,3c2.6,2.4,5.8,4.1,9.3,4.7l-1.8-2.4c-0.5,5,0.5,10.1,2.8,14.6c1.5,2.9,5.8,0.3,4.3-2.5
		c-1.9-3.7-2.6-7.9-2.1-12.1c0-1.1-0.8-2.1-1.8-2.4c-2.6-0.4-5.1-1.6-7.1-3.4l0.4,3l4-5.2c0.5-0.8,0.5-1.7,0-2.5
		c-0.6-1.1-0.8-2.4-0.7-3.7h-5c0.9,2.7,3.3,4.5,6.1,4.7c1.7,0.2,3.2-0.8,3.6-2.4c0.3-1.2,0.3-2.5,0-3.8c-0.4-1.8-1.8-4-1.7-5.5
		c0.1-0.7,0.8-1.3,1.5-1.8c1-0.7,1.9-1.5,2.7-2.4c0.9-1.1,1.1-3.2-0.5-3.9c0,0-0.6-0.3-0.4-0.2s0,0.2,0,0c0,0.3,0,0,0-0.2
		c0-0.4-0.1,0.5,0-0.2c0-0.2,0.1-0.3,0.1-0.5c0,0.2,0.2-0.4,0,0s0.2-0.1-0.1,0c1.9-0.6,2.7-3.6,0.6-4.6c-0.7-0.3-1-0.8-0.8-1.4
		l-1.8,1.7c4.1-1.2,7.2-4.6,8-8.8c0.3-1.4-0.5-2.7-1.9-3.1c-0.4-0.1-0.8-0.1-1.2,0c-4.1,0.7-8.1,2-11.9,3.8l3,0.4l-3.8-4.1
		c-1-1-2.6-1-3.5,0c0.1-0.1,0.3-0.1,0.2-0.1l1.8,1.8c-0.9-3.5-5-5.8-8.4-4.4c-1.3,0.4-2.1,1.8-1.8,3.1C728.2,15.5,729.6,16.3,731,16
		L731,16z"/>
	<path class="st4" d="M773.1,12.1c-0.9,0.8-1.4,1.9-1.6,3.1c-0.2,1.1-0.1,2.3-0.2,3.3c-0.1,0.1-0.1,0.3-0.1,0.4c0.1,0.4,0,0,0,0.1
		s0.7,0.1-0.1-0.1c-1.3-0.4-2.7-0.3-4,0.2c-4.4,2.2-3.1,9-3,12.9c0,1.7,2.2,3.3,3.8,2.2c2.1-1.5,4-3.4,5.6-5.4l-4.6-1.9
		c-0.4,1.9-0.7,3.9-1.2,5.8c-0.1,0.6-0.4,1.2-0.8,1.6c-0.4,0.3-0.7-0.1-0.2,0.3c-1.1-0.9-3.2-1.1-3.9,0.5c-1.8,3.9-2.7,8.2-2.6,12.5
		c0,1.1,0.8,2.1,1.8,2.4c2.2,0.5,3.7-0.6,4.8-2.4c0.3-0.4,0.5-1,0.8-1.2c0.7-0.2,1.4-0.3,2.1-0.2c2.1,0,4.1-0.7,5.6-2.1
		c1.3-1.5,2.4-3.2,3-5.1h-4.8c0.6,1.3,0.6,2.7,0.1,4c-0.6,1.2-1.7,2.2-2.9,2.7c-3,1.7-5.9,3.1-7.5,6.2c-1.6,2.9-1.9,6.3-1,9.5
		c0.4,1.8,1.6,3.4,3.2,4.4c0.9,0.4,2,0.5,3,0.3c0.1,0,1.1-0.1,1.1-0.2s0.2,0,0,0c-0.7-0.3-0.9-0.9-0.5-1.9c-0.6,1-0.4,2.2,0.4,3
		c0.8,0.8,2,0.9,3,0.4c-0.2,0.1,0.1,0.1,0.3,0.4c1,1,2.6,1,3.5,0s0.9-2.5,0-3.5c-1.6-1.8-4.2-2.3-6.4-1.2l3.4,3.4
		c1.3-1.8,0.2-4.1-1.6-5.1c-1-0.5-2.1-0.6-3.2-0.4c-0.4,0.1-0.8,0.2-1.2,0.2c-0.3,0,0.2,0.2,0,0c-0.8-0.9-0.9-2.7-0.9-3.9
		c0.1-1.4,0.6-2.7,1.3-3.8c1.9-2.7,5.7-3.4,8.1-5.6c2.8-2.7,3.6-6.7,2.2-10.3c-0.4-1.3-1.8-2.1-3.2-1.6c-0.8,0.2-1.4,0.9-1.6,1.6
		c-0.4,1.2-1.1,2.3-2,3.2c-0.9,0.7-2.2,0.4-3.3,0.5c-1.7,0-3.2,0.7-4.4,1.9c-0.4,0.5-0.8,1-1.2,1.6l-0.4,0.6c0.1-0.1,0,0-0.2,0.1
		c0.3-0.3,0.7-0.4,1.1-0.3l1.8,2.4c-0.1-3.4,0.6-6.8,2-10l-3.9,0.5c2.3,1.9,5.8,1.6,7.7-0.8l0.1-0.1c2-2.5,2.2-6.1,2.8-9.1
		s-2.9-4.1-4.6-1.9c-1.1,1.4-2.3,2.6-3.8,3.6l3.8,2.1c-0.2-2.3-0.3-4.7-0.1-7.1c0-0.3,0.1-0.6,0.2-0.9l0.1-0.4c0.2-0.6,0.2,0,0,0
		c0.4,0.1,0.8,0.2,1.3,0.2c2.4,0.4,4.7-1.1,5.4-3.4c0.3-0.9,0.4-1.9,0.4-2.9c0-0.6-0.1-1.5,0.3-1.9c2.3-2.2-1.2-5.8-3.5-3.5
		L773.1,12.1z"/>
	<path class="st4" d="M787.8,55.1c0.1-1.3-0.3-2.6-1.1-3.7c-0.2-0.4-0.5-0.8-0.8-1.3c-0.1-0.1-0.4-0.9-0.2-0.3
		c0-0.1-0.2-0.7-0.2-0.5s0,0.1,0-0.2c0-0.2,0-0.4,0-0.6c0,0.2,0,0.1,0-0.2s0.1-0.6,0.1-1c0.1-0.7,0-1.4-0.2-2c-0.5-1.7-2-2.9-3.8-3
		l2.2,3.8l1.2-1.9l0.5-0.8l0.3-0.5c0.1-0.2,0.2-0.2,0-0.1s-0.7,0.5-0.7,0.4c0,0,0.6,0.1,0.7,0.1c0.7,0.1,1.4,0,2-0.2
		c1.1-0.3,1.8-1.3,1.8-2.4c0-0.3,0-0.3,0,0s-0.1,0.2,0.1-0.1c0.7-1.2,0.3-2.7-0.9-3.4s-2.7-0.3-3.4,0.9c-0.5,0.8-0.8,1.7-0.7,2.6
		l1.8-2.4c-0.2,0.1-0.2,0.1,0,0.1c-0.1,0-0.3,0-0.4,0c-0.3,0-0.6-0.1-0.9-0.1c-1.1,0-2.1,0.4-2.8,1.1c-0.5,0.6-1,1.3-1.4,2l-1.4,2.2
		c-0.7,1.2-0.3,2.7,1,3.4c0.4,0.2,0.8,0.3,1.2,0.3c-0.3,0-0.5-0.1-0.8-0.3c-0.2-0.2-0.2-0.2-0.1-0.1s0.1,0.1-0.1-0.1
		c0.1,0.2,0.1,0.3,0,0.1s0-0.2,0,0.1c0,0.2,0,0.3,0,0.5c-0.2,1.2-0.2,2.4,0.2,3.6c0.4,0.9,0.8,1.7,1.3,2.5c0.1,0.2,0.2,0.4,0.3,0.5
		s0.3,0.7,0.1,0.1c0,0.1,0.1,0.3,0.1,0.5s0,0.1,0-0.2c0,0.1,0,0.3,0,0.4c0,1.4,1.1,2.5,2.5,2.5C786.7,57.6,787.9,56.5,787.8,55.1
		L787.8,55.1z"/>
</g>
<path class="st3" d="M566.7,143.3c-18.4-23.5-14.2-57.4,9.3-75.8s57.4-14.2,75.8,9.3c18.4,23.5,14.2,57.4-9.3,75.8
	c-11.6,9.1-26.4,13-41,10.9C587.8,161.5,575.3,154.3,566.7,143.3"/>
<path class="st3" d="M600.7,56.8c8-33.3,17.3-55.2,24-54.2c10,1.5,10.9,53,1.8,115.1S602,228.8,592,227.4c-7.4-1.1-9.8-29.3-6.9-69"
	/>
<path class="st3" d="M603.1,61.8"/>
<path class="st3" d="M574.2,69.1c2.2,11.9,2.5,24,0.7,36c-3.2,21.9-10.9,34.3-10.9,34.3"/>
</svg>
